<?xml version="1.0" encoding="utf-8"?>
<svg width="43px" height="32px" viewBox="0 0 43 32" version="1.1" xmlns:xlink="http://www.w3.org/1999/xlink" xmlns="http://www.w3.org/2000/svg">
  <g id="hand">
    <path d="M18.3912 15.794L19.6912 15.794L18.2332 17.166L27.4922 17.166C27.4922 17.166 34.9832 14.232 35.8272 9.432C36.4959 6.30532 38.0191 3.4255 40.2272 1.11301L30.5132 1.113C30.5132 1.113 26.6613 4.87 26.6613 7.713C26.6173 9.42192 25.6424 10.97 24.1202 11.748L22.5053 11.748C22.5053 11.748 25.3753 10.102 25.3753 7.713C25.3753 3.797 30.0443 0 30.0443 0L42.6882 0C42.6882 0 37.7062 5.28 37.2882 9.344C36.8152 13.756 30.2042 17.666 27.6562 18.178L15.4682 18.178L18.3912 15.794L18.3912 15.794Z" id="Trazado_1" fill="#FFFFFF" fill-rule="evenodd" stroke="none" />
    <path d="M12.2093 28.313C12.2093 28.313 2.88825 29.788 2.88825 23.551C2.88825 17.314 10.3532 14.634 14.5562 14.924C18.7593 15.214 22.9713 15.548 24.2133 14.031C25.4552 12.514 22.7393 12.025 19.1793 12.122C15.6193 12.219 0.866277 12.655 0.0222522 24.084C-0.425746 30.038 5.96827 31.244 12.2083 31.025C11.819 30.6215 11.5971 30.0855 11.5873 29.525C11.6079 29.0498 11.8346 28.6073 12.2082 28.313" id="Trazado_2" fill="#FFFFFF" fill-rule="evenodd" stroke="none" />
    <path d="M13.1082 29.585C13.1082 28.86 13.9302 28.265 14.9352 28.265L18.0712 28.265C19.0712 28.265 19.9062 28.86 19.9062 29.585C19.9062 30.31 19.0762 30.9 18.0712 30.9L14.9352 30.9C13.9352 30.9 13.1082 30.308 13.1082 29.585" id="Trazado_3" fill="#FFFFFF" fill-rule="evenodd" stroke="none" />
    <path d="M12.4673 25.598C12.4673 24.898 13.2823 24.326 14.2973 24.326L20.9053 24.326C21.9203 24.326 22.7403 24.894 22.7403 25.598C22.7403 26.302 21.9203 26.86 20.9053 26.86L14.2973 26.86C13.2823 26.86 12.4673 26.298 12.4673 25.598" id="Trazado_4" fill="#FFFFFF" fill-rule="evenodd" stroke="none" />
    <path d="M12.4673 21.538C12.4673 20.857 13.2823 20.313 14.2973 20.313L25.7883 20.313C26.7953 20.313 27.6153 20.857 27.6153 21.538C27.6153 22.219 26.7953 22.75 25.7883 22.75L14.2973 22.75C13.2823 22.75 12.4673 22.208 12.4673 21.538" id="Trazado_5" fill="#FFFFFF" fill-rule="evenodd" stroke="none" />
    <path d="M31.2452 16.835L32.2893 16.835C33.3082 16.835 34.1152 17.38 34.1152 18.052C34.1152 18.724 33.3082 19.272 32.2893 19.272L20.8043 19.272C20.1631 19.3133 19.5408 19.0453 19.1303 18.551L27.2303 18.551C28.6951 18.3384 30.0792 17.7468 31.2452 16.835" id="Trazado_6" fill="#FFFFFF" fill-rule="evenodd" stroke="none" />
  </g>
</svg>