<?xml version="1.0" encoding="utf-8"?>
<svg width="24px" height="24px" viewBox="0 0 24 24" version="1.1" xmlns:xlink="http://www.w3.org/1999/xlink" xmlns="http://www.w3.org/2000/svg">
  <path d="M0 24L24 24L24 0L0 0L0 24L0 24ZM16 8C16 10.2133 14.2133 12 12 12C9.78667 12 8 10.2133 8 8C8 5.78667 9.78667 4 12 4C14.2133 4 16 5.78667 16 8L16 8ZM4 18.6667C4 16 9.33333 14.5333 12 14.5333C14.6667 14.5333 20 16 20 18.6667L20 20L4 20L4 18.6667L4 18.6667Z" id="Shape" fill="#14649B" fill-rule="evenodd" stroke="none" />
</svg>