<svg xmlns="http://www.w3.org/2000/svg" width="125.542" height="39.357" viewBox="0 0 125.542 39.357">
  <defs>
    <style>
      .cls-1, .cls-2 {
        fill: #fff;
      }

      .cls-2 {
        fill-rule: evenodd;
      }
    </style>
  </defs>
  <g id="Grupo_3" data-name="Grupo 3" transform="translate(-487.568 -8.684)">
    <rect id="Rectángulo_1" data-name="Rectángulo 1" class="cls-1" width="125.015" height="0.842" transform="translate(488.096 41.202)"/>
    <path id="Trazado_1" data-name="Trazado 1" class="cls-2" d="M502.714,24.474h1.3l-1.458,1.372h9.259s7.491-2.934,8.335-7.734a17.279,17.279,0,0,1,4.4-8.319h-9.714s-3.852,3.757-3.852,6.6a4.666,4.666,0,0,1-2.541,4.035h-1.615s2.87-1.646,2.87-4.035c0-3.916,4.669-7.713,4.669-7.713h12.644s-4.982,5.28-5.4,9.344c-.473,4.412-7.084,8.322-9.632,8.834H499.791Z" transform="translate(3.244)"/>
    <path id="Trazado_2" data-name="Trazado 2" class="cls-2" d="M499.776,34.454s-9.321,1.475-9.321-4.762,7.465-8.917,11.668-8.627,8.415.624,9.657-.893-1.474-2.006-5.034-1.909-18.313.533-19.157,11.962c-.448,5.954,5.946,7.16,12.186,6.941a2.217,2.217,0,0,1-.621-1.5,1.633,1.633,0,0,1,.621-1.212" transform="translate(0 2.539)"/>
    <path id="Trazado_3" data-name="Trazado 3" class="cls-2" d="M497.926,32.338c0-.725.822-1.32,1.827-1.32h3.136c1,0,1.835.595,1.835,1.32s-.83,1.315-1.835,1.315h-3.136c-1,0-1.827-.592-1.827-1.315" transform="translate(2.749 5.927)"/>
    <path id="Trazado_4" data-name="Trazado 4" class="cls-2" d="M497.42,29.177c0-.7.815-1.272,1.83-1.272h6.608c1.015,0,1.835.568,1.835,1.272s-.82,1.262-1.835,1.262H499.25c-1.015,0-1.83-.562-1.83-1.262" transform="translate(2.614 5.101)"/>
    <path id="Trazado_5" data-name="Trazado 5" class="cls-2" d="M497.42,25.959c0-.681.815-1.225,1.83-1.225h11.491c1.007,0,1.827.544,1.827,1.225s-.82,1.212-1.827,1.212H499.25c-1.015,0-1.83-.542-1.83-1.212" transform="translate(2.614 4.259)"/>
    <path id="Trazado_6" data-name="Trazado 6" class="cls-1" d="M514.8,21.985h1.044c1.019,0,1.826.545,1.826,1.217s-.807,1.22-1.826,1.22H504.359a2.008,2.008,0,0,1-1.674-.721h8.1a8.5,8.5,0,0,0,4.015-1.716" transform="translate(4.012 3.53)"/>
    <path id="Trazado_7" data-name="Trazado 7" class="cls-2" d="M487.822,39.293l.829-.073a.932.932,0,0,0,.3.569,1,1,0,0,0,.618.178.955.955,0,0,0,.624-.161.474.474,0,0,0,.206-.381.312.312,0,0,0-.09-.237.76.76,0,0,0-.3-.172c-.1-.03-.33-.092-.682-.178a2.23,2.23,0,0,1-.964-.385,1.024,1.024,0,0,1-.391-.8.987.987,0,0,1,.183-.559,1.064,1.064,0,0,1,.526-.4,2.13,2.13,0,0,1,.835-.147,1.858,1.858,0,0,1,1.193.333,1.127,1.127,0,0,1,.425.872l-.855.034a.7.7,0,0,0-.234-.437.865.865,0,0,0-.535-.13,1.062,1.062,0,0,0-.588.137.27.27,0,0,0-.125.243.278.278,0,0,0,.115.24,2.429,2.429,0,0,0,.79.273,4.048,4.048,0,0,1,.915.282,1.135,1.135,0,0,1,.467.395,1.147,1.147,0,0,1,.171.634,1.1,1.1,0,0,1-.2.638,1.185,1.185,0,0,1-.566.438,2.539,2.539,0,0,1-.92.144,1.937,1.937,0,0,1-1.232-.347,1.449,1.449,0,0,1-.507-1.006" transform="translate(0.067 7.395)"/>
    <path id="Trazado_8" data-name="Trazado 8" class="cls-2" d="M491.013,37.388h.636V39a3.1,3.1,0,0,0,.025.5.491.491,0,0,0,.188.286.873.873,0,0,0,.844.008.368.368,0,0,0,.159-.253,3.313,3.313,0,0,0,.032-.5V37.388h.635v1.559a3.326,3.326,0,0,1-.053.753.685.685,0,0,1-.192.375.887.887,0,0,1-.371.244,1.892,1.892,0,0,1-.6.082,1.954,1.954,0,0,1-.688-.095.911.911,0,0,1-.373-.256,1.032,1.032,0,0,1-.183-.324,4.479,4.479,0,0,1-.056-.754Z" transform="translate(0.914 7.618)"/>
    <path id="Trazado_9" data-name="Trazado 9" class="cls-2" d="M493.542,40.353V37.388h1.021a4.092,4.092,0,0,1,.766.046.81.81,0,0,1,.449.292.869.869,0,0,1,.195.573.849.849,0,0,1-.118.461.78.78,0,0,1-.269.291.841.841,0,0,1-.325.143,4.141,4.141,0,0,1-.666.043h-.42v1.116Zm.633-2.46v.838h.353a1.692,1.692,0,0,0,.507-.048.391.391,0,0,0,.195-.143.376.376,0,0,0,.08-.229.363.363,0,0,0-.108-.267.5.5,0,0,0-.259-.129,2.576,2.576,0,0,0-.457-.022Z" transform="translate(1.585 7.618)"/>
    <path id="Trazado_10" data-name="Trazado 10" class="cls-2" d="M495.871,40.353V37.388h2.345v.5h-1.709v.659H498.1v.495h-1.591v.81h1.775v.5Z" transform="translate(2.204 7.618)"/>
    <path id="Trazado_11" data-name="Trazado 11" class="cls-2" d="M498.21,40.353V37.388h1.341a2.339,2.339,0,0,1,.738.087.723.723,0,0,1,.368.278.819.819,0,0,1,.134.466.759.759,0,0,1-.211.554,1.009,1.009,0,0,1-.628.273,1.767,1.767,0,0,1,.348.245,3.428,3.428,0,0,1,.357.478l.392.582h-.76l-.467-.643a2.924,2.924,0,0,0-.337-.431.686.686,0,0,0-.194-.134,1.421,1.421,0,0,0-.319-.028h-.129v1.236Zm.634-1.708h.468a2.343,2.343,0,0,0,.577-.039.324.324,0,0,0,.178-.129.376.376,0,0,0-.025-.458.367.367,0,0,0-.233-.113,4.422,4.422,0,0,0-.466-.013h-.5Z" transform="translate(2.824 7.618)"/>
    <rect id="Rectángulo_2" data-name="Rectángulo 2" class="cls-1" width="0.64" height="2.965" transform="translate(504.198 45.006)"/>
    <path id="Trazado_12" data-name="Trazado 12" class="cls-2" d="M501.7,40.353V37.388h.619l1.3,1.982V37.388h.6v2.965h-.643L502.3,38.421v1.932Z" transform="translate(3.751 7.618)"/>
    <path id="Trazado_13" data-name="Trazado 13" class="cls-2" d="M504.983,40.353V37.892h-.937v-.5h2.51v.5h-.936v2.461Z" transform="translate(4.373 7.618)"/>
    <path id="Trazado_14" data-name="Trazado 14" class="cls-2" d="M506.36,40.353V37.388H508.7v.5h-1.709v.659h1.59v.495h-1.59v.81h1.767v.5Z" transform="translate(4.987 7.618)"/>
    <path id="Trazado_15" data-name="Trazado 15" class="cls-2" d="M508.7,40.353V37.388h.625l1.291,1.982V37.388h.6v2.965h-.643l-1.279-1.932v1.932Z" transform="translate(5.607 7.618)"/>
    <path id="Trazado_16" data-name="Trazado 16" class="cls-2" d="M511.21,37.388h1.171a2.247,2.247,0,0,1,.6.059.979.979,0,0,1,.477.277,1.135,1.135,0,0,1,.295.477,1.83,1.83,0,0,1,.109.7,1.883,1.883,0,0,1-.095.638,1.29,1.29,0,0,1-.343.52,1.129,1.129,0,0,1-.443.235,2.01,2.01,0,0,1-.568.062H511.21Zm.639.5v1.964h.485a1.764,1.764,0,0,0,.383-.033.526.526,0,0,0,.252-.119.622.622,0,0,0,.173-.283,1.926,1.926,0,0,0,.068-.547,1.748,1.748,0,0,0-.068-.529.794.794,0,0,0-.18-.29.62.62,0,0,0-.3-.137,3.894,3.894,0,0,0-.523-.027Z" transform="translate(6.274 7.618)"/>
    <path id="Trazado_17" data-name="Trazado 17" class="cls-2" d="M513.736,40.353V37.388h2.354v.5h-1.706v.659h1.587v.495h-1.587v.81h1.762v.5Z" transform="translate(6.945 7.618)"/>
    <path id="Trazado_18" data-name="Trazado 18" class="cls-2" d="M516.075,40.353V37.388h.621l1.3,1.982V37.388h.6v2.965h-.64l-1.278-1.932v1.932Z" transform="translate(7.565 7.618)"/>
    <path id="Trazado_19" data-name="Trazado 19" class="cls-2" d="M520.644,39.274l.621.182a1.332,1.332,0,0,1-.473.723,1.393,1.393,0,0,1-.844.233,1.408,1.408,0,0,1-1.04-.4,1.485,1.485,0,0,1-.406-1.1,1.534,1.534,0,0,1,.416-1.144,1.415,1.415,0,0,1,1.067-.415,1.343,1.343,0,0,1,.943.324,1.112,1.112,0,0,1,.329.544l-.635.143a.592.592,0,0,0-.237-.364.664.664,0,0,0-.429-.135.782.782,0,0,0-.572.234,1.151,1.151,0,0,0-.216.774,1.2,1.2,0,0,0,.216.8.705.705,0,0,0,.564.237.619.619,0,0,0,.431-.157.84.84,0,0,0,.264-.473" transform="translate(8.209 7.607)"/>
    <rect id="Rectángulo_3" data-name="Rectángulo 3" class="cls-1" width="0.638" height="2.965" transform="translate(530.005 45.006)"/>
    <path id="Trazado_20" data-name="Trazado 20" class="cls-2" d="M525.018,40.353h-.7l-.278-.672h-1.265l-.263.672h-.683l1.239-2.965h.678Zm-1.179-1.17-.442-1.1-.419,1.1Z" transform="translate(9.093 7.618)"/>
    <path id="Trazado_21" data-name="Trazado 21" class="cls-2" d="M525.907,37.388h1.169a2.292,2.292,0,0,1,.6.059,1.04,1.04,0,0,1,.483.277,1.362,1.362,0,0,1,.295.477,2.058,2.058,0,0,1,.1.7,1.843,1.843,0,0,1-.1.638,1.255,1.255,0,0,1-.337.52,1.179,1.179,0,0,1-.452.235,1.937,1.937,0,0,1-.559.062h-1.207Zm.643.5v1.964h.475a1.78,1.78,0,0,0,.39-.033.6.6,0,0,0,.254-.119.652.652,0,0,0,.17-.283,1.81,1.81,0,0,0,.065-.547,1.648,1.648,0,0,0-.065-.529.761.761,0,0,0-.178-.29.6.6,0,0,0-.3-.137,3.894,3.894,0,0,0-.526-.027Z" transform="translate(10.175 7.618)"/>
    <path id="Trazado_22" data-name="Trazado 22" class="cls-2" d="M528.438,40.353V37.388h2.343v.5h-1.709v.659h1.594v.495h-1.594v.81h1.771v.5Z" transform="translate(10.846 7.618)"/>
    <path id="Trazado_23" data-name="Trazado 23" class="cls-2" d="M536.05,40.56h-.927l-.377-.9h-1.693l-.338.9H531.8l1.649-3.954h.9ZM534.476,39l-.585-1.472L533.322,39Z" transform="translate(11.739 7.41)"/>
    <path id="Trazado_24" data-name="Trazado 24" class="cls-2" d="M535.421,37.388h1.173a2.216,2.216,0,0,1,.6.059,1.013,1.013,0,0,1,.485.277,1.238,1.238,0,0,1,.3.477,1.912,1.912,0,0,1,.1.7,1.653,1.653,0,0,1-.1.638,1.265,1.265,0,0,1-.335.52,1.143,1.143,0,0,1-.448.235,1.964,1.964,0,0,1-.564.062h-1.21Zm.641.5v1.964h.481a1.835,1.835,0,0,0,.388-.033.652.652,0,0,0,.259-.119.82.82,0,0,0,.161-.283,1.772,1.772,0,0,0,.064-.547,1.614,1.614,0,0,0-.064-.529.675.675,0,0,0-.185-.29.537.537,0,0,0-.287-.137,3.946,3.946,0,0,0-.528-.027Z" transform="translate(12.7 7.618)"/>
    <path id="Trazado_25" data-name="Trazado 25" class="cls-2" d="M537.945,40.353V37.388h.958l.575,2.025.565-2.025H541v2.965h-.6V38.018l-.619,2.335h-.621l-.625-2.335v2.335Z" transform="translate(13.369 7.618)"/>
    <rect id="Rectángulo_4" data-name="Rectángulo 4" class="cls-1" width="0.643" height="2.965" transform="translate(554.987 45.006)"/>
    <path id="Trazado_26" data-name="Trazado 26" class="cls-2" d="M541.843,40.353V37.388h.612l1.3,1.982V37.388h.593v2.965h-.641l-1.279-1.932v1.932Z" transform="translate(14.404 7.618)"/>
    <rect id="Rectángulo_5" data-name="Rectángulo 5" class="cls-1" width="0.638" height="2.965" transform="translate(559.418 45.006)"/>
    <path id="Trazado_27" data-name="Trazado 27" class="cls-2" d="M545.2,39.4l.621-.062a.669.669,0,0,0,.223.439.967.967,0,0,0,.931.009.346.346,0,0,0,.154-.283.249.249,0,0,0-.061-.176.539.539,0,0,0-.23-.137c-.078-.024-.247-.066-.514-.127a1.813,1.813,0,0,1-.723-.3.733.733,0,0,1-.285-.59.75.75,0,0,1,.128-.429.942.942,0,0,1,.4-.3,1.8,1.8,0,0,1,.618-.092,1.443,1.443,0,0,1,.906.234.839.839,0,0,1,.307.658l-.638.024a.512.512,0,0,0-.175-.326.656.656,0,0,0-.4-.1.782.782,0,0,0-.438.108.213.213,0,0,0-.1.186.242.242,0,0,0,.091.183,1.716,1.716,0,0,0,.583.195,3.337,3.337,0,0,1,.691.211.819.819,0,0,1,.481.779.85.85,0,0,1-.147.471.951.951,0,0,1-.429.333,2.039,2.039,0,0,1-.7.109,1.391,1.391,0,0,1-.915-.262,1.052,1.052,0,0,1-.385-.753" transform="translate(15.296 7.609)"/>
    <path id="Trazado_28" data-name="Trazado 28" class="cls-2" d="M548.424,40.353V37.892h-.936v-.5H550v.5h-.937v2.461Z" transform="translate(15.902 7.618)"/>
    <path id="Trazado_29" data-name="Trazado 29" class="cls-2" d="M549.8,40.353V37.388h1.345a2.339,2.339,0,0,1,.742.087.661.661,0,0,1,.364.278.809.809,0,0,1,.146.466.79.79,0,0,1-.2.554,1.065,1.065,0,0,1-.634.273,1.681,1.681,0,0,1,.334.245,3.272,3.272,0,0,1,.372.478l.385.582h-.764l-.467-.643a3.209,3.209,0,0,0-.333-.431.612.612,0,0,0-.191-.134,1.471,1.471,0,0,0-.321-.028h-.133v1.236Zm.642-1.708h.468a2.432,2.432,0,0,0,.583-.039.364.364,0,0,0,.247-.344.3.3,0,0,0-.094-.243.409.409,0,0,0-.244-.113,4.37,4.37,0,0,0-.466-.013h-.495Z" transform="translate(16.515 7.618)"/>
    <path id="Trazado_30" data-name="Trazado 30" class="cls-2" d="M555.241,40.353h-.692l-.277-.672h-1.26l-.267.672h-.678l1.232-2.965h.677Zm-1.173-1.17-.44-1.1-.421,1.1Z" transform="translate(17.117 7.618)"/>
    <path id="Trazado_31" data-name="Trazado 31" class="cls-2" d="M556.9,39.274l.62.182a1.306,1.306,0,0,1-.473.723,1.581,1.581,0,0,1-1.883-.172,1.458,1.458,0,0,1-.4-1.1,1.543,1.543,0,0,1,.4-1.144,1.445,1.445,0,0,1,1.072-.415,1.383,1.383,0,0,1,.954.324,1.141,1.141,0,0,1,.32.544l-.634.143a.613.613,0,0,0-.239-.364.679.679,0,0,0-.426-.135.8.8,0,0,0-.578.234,1.166,1.166,0,0,0-.21.774,1.215,1.215,0,0,0,.21.8.725.725,0,0,0,.562.237.64.64,0,0,0,.438-.157.815.815,0,0,0,.268-.473" transform="translate(17.831 7.607)"/>
    <rect id="Rectángulo_6" data-name="Rectángulo 6" class="cls-1" width="0.656" height="2.965" transform="translate(575.868 45.006)"/>
    <path id="Trazado_32" data-name="Trazado 32" class="cls-2" d="M558.237,38.9a1.747,1.747,0,0,1,.146-.754,1.418,1.418,0,0,1,.292-.406,1.282,1.282,0,0,1,.411-.273,1.894,1.894,0,0,1,.687-.115,1.521,1.521,0,0,1,1.117.41,1.717,1.717,0,0,1,0,2.247,1.489,1.489,0,0,1-1.114.4,1.529,1.529,0,0,1-1.121-.4,1.479,1.479,0,0,1-.419-1.108m.658-.013a1.1,1.1,0,0,0,.249.759.843.843,0,0,0,.629.259.784.784,0,0,0,.623-.259,1.043,1.043,0,0,0,.252-.773,1.07,1.07,0,0,0-.235-.759.857.857,0,0,0-.639-.252.841.841,0,0,0-.634.261,1.1,1.1,0,0,0-.244.764" transform="translate(18.755 7.607)"/>
    <path id="Trazado_33" data-name="Trazado 33" class="cls-2" d="M561.063,40.353V37.388h.625l1.291,1.982V37.388h.6v2.965h-.64l-1.278-1.932v1.932Z" transform="translate(19.505 7.618)"/>
    <path id="Trazado_34" data-name="Trazado 34" class="cls-2" d="M565.977,40.561V37.282h-1.25v-.675h3.349v.675h-1.242v3.279Z" transform="translate(20.477 7.41)"/>
    <path id="Trazado_35" data-name="Trazado 35" class="cls-2" d="M567.727,40.353V37.388h1.349a2.425,2.425,0,0,1,.74.087.747.747,0,0,1,.367.278.864.864,0,0,1,.138.466.8.8,0,0,1-.211.554,1.019,1.019,0,0,1-.628.273,1.64,1.64,0,0,1,.342.245,3.691,3.691,0,0,1,.362.478l.391.582h-.76l-.466-.643a2.609,2.609,0,0,0-.342-.431.467.467,0,0,0-.19-.134,1.425,1.425,0,0,0-.318-.028h-.127v1.236Zm.648-1.708h.468a2.487,2.487,0,0,0,.576-.039.312.312,0,0,0,.177-.129.386.386,0,0,0-.025-.458.412.412,0,0,0-.238-.113,4.321,4.321,0,0,0-.463-.013h-.495Z" transform="translate(21.273 7.618)"/>
    <rect id="Rectángulo_7" data-name="Rectángulo 7" class="cls-1" width="0.634" height="2.965" transform="translate(592.179 45.006)"/>
    <path id="Trazado_36" data-name="Trazado 36" class="cls-2" d="M571.224,37.388h1.267a3.591,3.591,0,0,1,.559.032.8.8,0,0,1,.325.123.709.709,0,0,1,.247.247.668.668,0,0,1,.095.348.718.718,0,0,1-.438.636.891.891,0,0,1,.438.273.642.642,0,0,1,.156.448.867.867,0,0,1-.1.4.937.937,0,0,1-.275.3.821.821,0,0,1-.42.146c-.12.013-.371.018-.777.018h-1.081Zm.643.5v.685h.415a3.942,3.942,0,0,0,.468-.018.4.4,0,0,0,.261-.1.324.324,0,0,0,.089-.234.262.262,0,0,0-.083-.218.361.361,0,0,0-.242-.109c-.063,0-.242-.008-.543-.008Zm0,1.176v.8h.592a2.166,2.166,0,0,0,.439-.024.376.376,0,0,0,.223-.113.346.346,0,0,0,.092-.251.438.438,0,0,0-.067-.233.358.358,0,0,0-.194-.132,2.368,2.368,0,0,0-.571-.044Z" transform="translate(22.201 7.618)"/>
    <path id="Trazado_37" data-name="Trazado 37" class="cls-2" d="M573.749,37.388h.631V39c0,.249.015.416.022.5a.49.49,0,0,0,.195.286.719.719,0,0,0,.423.113.681.681,0,0,0,.414-.105.343.343,0,0,0,.158-.253,2.621,2.621,0,0,0,.038-.5V37.388h.636v1.559a4.321,4.321,0,0,1-.048.753.83.83,0,0,1-.195.375.97.97,0,0,1-.378.244,1.853,1.853,0,0,1-.6.082,2.018,2.018,0,0,1-.695-.095.985.985,0,0,1-.371-.256.918.918,0,0,1-.177-.324,3.575,3.575,0,0,1-.052-.754Z" transform="translate(22.871 7.618)"/>
    <path id="Trazado_38" data-name="Trazado 38" class="cls-2" d="M577.032,40.353V37.892h-.943v-.5h2.517v.5h-.931v2.461Z" transform="translate(23.492 7.618)"/>
    <path id="Trazado_39" data-name="Trazado 39" class="cls-2" d="M581.327,40.353h-.693l-.275-.672h-1.265l-.262.672h-.677l1.23-2.965h.674Zm-1.174-1.17-.442-1.1-.425,1.1Z" transform="translate(24.041 7.618)"/>
    <path id="Trazado_40" data-name="Trazado 40" class="cls-2" d="M580.936,40.353V37.388h1.341a2.33,2.33,0,0,1,.737.087.666.666,0,0,1,.365.278.761.761,0,0,1,.139.466.79.79,0,0,1-.2.554,1.026,1.026,0,0,1-.628.273,1.688,1.688,0,0,1,.339.245,4.2,4.2,0,0,1,.371.478l.383.582h-.767l-.467-.643a3.111,3.111,0,0,0-.333-.431.576.576,0,0,0-.192-.134,1.457,1.457,0,0,0-.324-.028h-.124v1.236Zm.638-1.708h.464a2.373,2.373,0,0,0,.577-.039.365.365,0,0,0,.187-.129.4.4,0,0,0,.065-.215.356.356,0,0,0-.087-.243.424.424,0,0,0-.243-.113,4.436,4.436,0,0,0-.467-.013h-.5Z" transform="translate(24.779 7.618)"/>
    <rect id="Rectángulo_8" data-name="Rectángulo 8" class="cls-1" width="0.638" height="2.965" transform="translate(608.886 45.006)"/>
    <path id="Trazado_41" data-name="Trazado 41" class="cls-2" d="M587.349,40.353h-.692l-.282-.672h-1.255l-.271.672h-.678l1.236-2.965h.674Zm-1.177-1.17-.434-1.1-.432,1.1Z" transform="translate(25.637 7.618)"/>
    <path id="Trazado_42" data-name="Trazado 42" class="cls-1" d="M562.492,29.4l-.247-5.937L556.751,29.4ZM538.6,36.938l2.26-2.214c-3.118,1.569-7.686,2.737-13.818,2.737-13.018,0-13.2-7.3-13.2-7.3h10.81s.486,3.079,5.24,3.079,8.449-4.554-3.573-4.973-9.788-11.922,9.256-11.922c0,0,13.117-.867,12.279,6.607H537.582s.473-2.834-4.019-2.834-7.151,4.047.087,4.13,12.376,1.462,12.376,4.715a3.161,3.161,0,0,1-.119.829l13.666-13.361h46.113l-1.842,5.063h-9.98l-6.045,15.444H576.906L583.5,21.494H571.506l3.1,15.444H562.8l-.122-3.086H552.635l-2.859,3.086Z" transform="translate(6.973 2.025)"/>
  </g>
</svg>
